P3
6 6
256
205 65 218 65 78 218 65 218 204 78 218 65 218 204 65 218 65 78
218 65 78 205 65 218 65 78 218 65 218 204 78 218 65 218 204 65
218 204 65 218 65 78 205 65 218 65 78 218 65 218 204 78 218 65
78 218 65 218 204 65 218 65 78 205 65 218 65 78 218 65 218 204
65 218 204 78 218 65 218 204 65 218 65 78 205 65 218 65 78 218
65 78 218 65 218 204 78 218 65 218 204 65 218 65 78 205 65 218